<?xml version="1.0" standalone="no"?>
<!DOCTYPE svg PUBLIC "-//W3C//DTD SVG 20010904//EN"
 "http://www.w3.org/TR/2001/REC-SVG-20010904/DTD/svg10.dtd">
<svg version="1.0" xmlns="http://www.w3.org/2000/svg"
 width="700.000000pt" height="700.000000pt" viewBox="0 0 700.000000 700.000000"
 preserveAspectRatio="xMidYMid meet">
<metadata>
Created by potrace 1.14, written by Peter Selinger 2001-2017
</metadata>
<g transform="translate(0.000000,700.000000) scale(0.100000,-0.100000)"
fill="#000000" stroke="none">
<path d="M3416 6627 c-23 -24 -126 -153 -231 -287 -104 -134 -229 -294 -277
-354 -48 -61 -91 -116 -95 -121 -5 -6 -42 -53 -83 -105 -41 -52 -88 -113 -105
-135 -16 -22 -32 -42 -35 -45 -3 -3 -64 -79 -135 -170 -71 -91 -170 -217 -220
-280 -97 -123 -511 -649 -918 -1169 -136 -174 -253 -323 -260 -331 -58 -70
-70 -93 -70 -130 0 -45 -11 -29 313 -440 102 -129 199 -252 215 -273 17 -22
66 -85 110 -141 44 -55 136 -173 206 -261 69 -88 210 -268 314 -400 104 -132
205 -261 225 -286 39 -52 278 -356 297 -379 36 -43 603 -766 651 -830 98 -129
133 -160 178 -160 65 0 29 -41 515 580 127 162 252 322 278 355 27 33 159 202
295 375 136 173 287 365 334 425 48 61 186 236 307 390 121 154 232 296 247
315 16 19 75 96 134 170 58 74 117 150 132 169 287 364 285 361 275 415 -4 20
-180 249 -588 766 -45 58 -286 364 -534 680 -248 316 -462 589 -475 605 -13
17 -87 111 -165 210 -78 99 -147 187 -154 195 -7 8 -118 150 -247 315 -287
368 -294 375 -350 375 -37 0 -48 -5 -84 -43z m-29 -4044 c-3 -3 -168 69 -322
142 -62 29 -57 26 -650 295 -269 122 -542 246 -605 275 -63 29 -207 94 -320
145 -113 51 -208 95 -212 99 -6 5 22 46 116 166 13 17 111 141 217 276 107
135 205 261 219 279 14 18 32 40 40 50 8 10 26 32 40 50 22 29 98 127 133 170
7 8 68 87 137 175 69 88 130 167 137 175 11 13 359 456 432 549 14 19 31 39
36 45 6 6 32 40 60 76 27 36 92 119 145 186 52 66 163 206 245 311 l150 192 3
-1826 c1 -1005 1 -1828 -1 -1830z m314 3547 c41 -52 79 -102 86 -110 7 -8 83
-105 169 -215 86 -110 169 -216 184 -235 16 -19 290 -368 609 -775 320 -407
587 -747 594 -755 36 -45 374 -477 380 -487 8 -13 -3 -19 -393 -195 -161 -73
-191 -86 -375 -170 -60 -28 -135 -61 -165 -75 -30 -14 -77 -35 -105 -48 -27
-13 -126 -58 -220 -100 -93 -43 -192 -88 -220 -100 -27 -13 -81 -37 -120 -55
-38 -18 -113 -51 -165 -75 -52 -24 -126 -57 -165 -75 -100 -46 -177 -80 -181
-80 -2 0 -4 824 -4 1832 0 1017 4 1828 9 1823 4 -6 41 -53 82 -105z m-1936
-3055 c77 -35 172 -77 210 -95 39 -18 315 -144 615 -280 300 -136 574 -261
610 -277 36 -17 93 -43 128 -58 l62 -28 0 -791 c-1 -624 -3 -788 -13 -775 -7
9 -24 31 -39 50 -15 19 -73 93 -128 164 -56 72 -109 139 -118 150 -10 11 -33
40 -52 65 -19 25 -40 52 -47 60 -7 8 -51 65 -99 125 -47 61 -97 124 -110 140
-13 17 -61 78 -106 136 -46 59 -263 335 -483 615 -220 279 -409 520 -420 535
-11 15 -84 108 -162 207 -79 99 -143 183 -143 186 0 3 35 -11 78 -30 42 -20
140 -64 217 -99z m3678 13 c-119 -150 -1067 -1357 -1116 -1420 -70 -91 -551
-703 -557 -708 -3 -3 -32 -40 -65 -83 -33 -43 -68 -88 -77 -100 -17 -21 -18
18 -18 768 l0 790 198 90 c108 49 233 106 277 126 68 32 853 389 1059 483 39
17 140 63 225 102 86 39 158 70 160 68 2 -2 -37 -54 -86 -116z"/>
</g>
</svg>
